<?xml version="1.0" encoding="UTF-8"?>
<svg id="a" data-name="Livello 1" xmlns="http://www.w3.org/2000/svg" viewBox="0 0 375.47 499.56">
  <path d="M.18,140.79c33.65-11.96,68.69-20.19,104.18-24.79,64.5-8.36,137.52-6.98,201.38,5.46,23.48,4.57,46.55,11.11,68.88,19.56l.7,1.98c.74,70.38-.18,143.67-27.86,209.39-29.61,70.29-93.78,113.72-159.44,147.17-44.32-22.37-88.34-49.84-121.95-86.84C.9,340.96-.9,232.6.18,140.79ZM171.46,134.19c-49.89,1.96-99.77,8.91-147.27,24.25l-.7,1.98c-.98,60.7.64,123.77,23.83,180.59,25.66,62.87,82.77,101.43,140.68,131.97,50.45-26.94,101.28-59.59,129.33-111.18,23.61-43.42,33-100,34.52-149.06.54-17.4-.46-34.89-.02-52.29l-1.12-1.56c-46.47-15.59-95.04-22.49-143.97-24.2-1.59-.06-3.05-.68-4.63-.73l-30.65.22Z" style="fill: #8f00ff;"/>
  <path d="M297.56,14.75l-25.21,83.13c-7.54-.87-15.14-2.09-22.7-2.73-48.55-4.11-97.61-2.41-145.96,2.6L78.46,15.08l67.97,37.84L188.34,0l40.63,52.85,68.59-38.1Z" style="fill: #8f00ff;"/>
  <path d="M166.24,263.31c-.27,1.71.15,1.04.94,1.4,14.13,6.38,23.71,14.53,25.1,31.18,2.65,31.6-1.83,66.49.12,98.43-1.54,16.51-.3,33.28-.71,49.88-26.28-12.4-51.13-28.35-74-46.25-16.78-13.14-35.01-29.39-49.29-45.18-2.45-2.7-12.24-14.12-12.67-16.8-1.41-8.79.16-23.84,0-33.49-.68-38.33-.97-76.82-.67-115.24l-9.41-18.39,105.51-.67c39.18,3.17,41.18,32.11,38.52,64.64-1.09,13.35-10.88,26.22-23.44,30.5ZM96.56,253.25h29.81c1.7,0,17.68-9.14,19.43-10.72,5.73-5.2,5.71-23.12,2.88-29.67-1.17-2.71-6.1-7.17-8.91-7.17h-43.21v47.57ZM96.56,287.42v43.21c13.75,14.01,28.57,26.97,44.21,38.84,6.32-1.72,10.1-8.47,10.72-14.73,1.71-17.28-1.22-37.3-.05-54.87-.63-4.66-4.46-8.9-8.65-10.78-.63-.28-4.76-1.67-5.03-1.67h-41.2Z" style="fill: #8f00ff;"/>
  <path d="M329.72,168.17v37.52h-75.04v47.9c0,.31-1.78,1.98.33,1.68s7.12-2.68,8.72-2.68h47.9l-11.39,36.18h-45.56v86.09c0,3.41,6.3,14.59,5.73,15.73-13.85,14.44-30.32,26.02-46.6,37.54v-242.87c0-.66-5.9-9.55-6.82-11.27-.95-1.79-2.18-3.82-2.56-5.81h125.29Z" style="fill: #8f00ff;"/>
</svg>